<svg width="1280" height="640" viewBox="0 0 1280 640" fill="none" xmlns="http://www.w3.org/2000/svg">
  <defs>
    <linearGradient id="bg" x1="160" y1="64" x2="1140" y2="592" gradientUnits="userSpaceOnUse">
      <stop stop-color="#101A23"/>
      <stop offset="1" stop-color="#1A2A38"/>
    </linearGradient>
    <linearGradient id="card" x1="0" y1="0" x2="1" y2="1">
      <stop stop-color="rgba(255,255,255,0.14)"/>
      <stop offset="1" stop-color="rgba(255,255,255,0.06)"/>
    </linearGradient>
    <linearGradient id="accent" x1="170" y1="112" x2="1100" y2="560" gradientUnits="userSpaceOnUse">
      <stop stop-color="#7AD7C8"/>
      <stop offset="0.55" stop-color="#5EB8D6"/>
      <stop offset="1" stop-color="#F2B25D"/>
    </linearGradient>
    <filter id="blur">
      <feGaussianBlur stdDeviation="40"/>
    </filter>
  </defs>

  <rect width="1280" height="640" rx="36" fill="url(#bg)"/>
  <g opacity="0.8" filter="url(#blur)">
    <circle cx="198" cy="122" r="122" fill="#7AD7C8"/>
    <circle cx="1080" cy="124" r="108" fill="#F28E7E"/>
    <circle cx="1112" cy="536" r="138" fill="#5EB8D6"/>
  </g>

  <rect x="54" y="52" width="1172" height="536" rx="30" fill="rgba(255,255,255,0.05)" stroke="rgba(255,255,255,0.12)"/>

  <text x="110" y="148" fill="#F2B25D" font-family="Arial, Helvetica, sans-serif" font-size="20" font-weight="700" letter-spacing="4">
    AI WORKFLOW DEMO
  </text>

  <text x="110" y="235" fill="#F7F0E7" font-family="Georgia, 'Times New Roman', serif" font-size="72" font-weight="400">
    Meeting Notes
  </text>
  <text x="110" y="315" fill="#F7F0E7" font-family="Georgia, 'Times New Roman', serif" font-size="72" font-weight="400">
    to Action Items
  </text>

  <text x="112" y="382" fill="#B3BEC8" font-family="Arial, Helvetica, sans-serif" font-size="26">
    Turn raw notes into summaries, action items, risks, and decisions.
  </text>
  <text x="112" y="422" fill="#B3BEC8" font-family="Arial, Helvetica, sans-serif" font-size="26">
    Built with Node.js, vanilla JS, and OpenAI structured outputs.
  </text>

  <rect x="112" y="470" width="176" height="44" rx="22" fill="rgba(122,215,200,0.16)" stroke="rgba(122,215,200,0.4)"/>
  <text x="145" y="498" fill="#D8FFF8" font-family="Arial, Helvetica, sans-serif" font-size="20" font-weight="700">
    Demo + Live AI
  </text>

  <g>
    <rect x="744" y="136" width="380" height="340" rx="28" fill="rgba(255,255,255,0.08)" stroke="rgba(255,255,255,0.12)"/>
    <rect x="776" y="176" width="178" height="22" rx="11" fill="rgba(255,255,255,0.12)"/>
    <rect x="970" y="176" width="118" height="34" rx="17" fill="rgba(122,215,200,0.2)" stroke="rgba(122,215,200,0.35)"/>
    <text x="993" y="198" fill="#D8FFF8" font-family="Arial, Helvetica, sans-serif" font-size="16" font-weight="700">
      Live AI
    </text>

    <rect x="776" y="232" width="316" height="74" rx="18" fill="rgba(255,255,255,0.06)"/>
    <rect x="794" y="250" width="170" height="12" rx="6" fill="rgba(255,255,255,0.16)"/>
    <rect x="794" y="274" width="264" height="10" rx="5" fill="rgba(255,255,255,0.12)"/>

    <rect x="776" y="324" width="316" height="54" rx="18" fill="rgba(255,255,255,0.06)"/>
    <rect x="794" y="341" width="134" height="12" rx="6" fill="rgba(122,215,200,0.55)"/>
    <rect x="794" y="362" width="180" height="8" rx="4" fill="rgba(255,255,255,0.12)"/>

    <rect x="776" y="396" width="150" height="44" rx="22" fill="url(#accent)"/>
    <text x="817" y="423" fill="#081018" font-family="Arial, Helvetica, sans-serif" font-size="18" font-weight="700">
      Analyze
    </text>
  </g>
</svg>
